HIERARCHY
ROOT Hips
{
 OFFSET 0.000000 0.000000 0.000000
 CHANNELS 6 Xposition Yposition Zposition Yrotation Xrotation Zrotation
 JOINT Chest
 {
  OFFSET 0.000000 9.585900 0.002600
  CHANNELS 3 Yrotation Xrotation Zrotation
  JOINT Chest2
  {
   OFFSET 0.000000 9.601200 -0.005300
   CHANNELS 3 Yrotation Xrotation Zrotation
   JOINT Chest3
   {
    OFFSET 0.000000 9.561800 0.000000
    CHANNELS 3 Yrotation Xrotation Zrotation
    JOINT Chest4
    {
     OFFSET 0.000000 9.552100 0.000000
     CHANNELS 3 Yrotation Xrotation Zrotation
     JOINT Neck
     {
      OFFSET 0.000000 14.453000 0.000000
      CHANNELS 3 Yrotation Xrotation Zrotation
      JOINT Head
      {
       OFFSET 0.000000 8.936500 -0.011300
       CHANNELS 3 Yrotation Xrotation Zrotation
       End Site
       {
        OFFSET 0.000000 17.073600 -0.006000
       }
      }
     }
     JOINT RightCollar
     {
      OFFSET -2.921100 9.558500 0.000000
      CHANNELS 3 Yrotation Xrotation Zrotation
      JOINT RightShoulder
      {
       OFFSET -13.519700 0.000000 0.000000
       CHANNELS 3 Yrotation Xrotation Zrotation
       JOINT RightElbow
       {
        OFFSET 0.000000 -29.696600 0.000000
        CHANNELS 3 Yrotation Xrotation Zrotation
        JOINT RightWrist
        {
         OFFSET 0.000000 -24.004700 0.000000
         CHANNELS 3 Yrotation Xrotation Zrotation
         End Site
         {
          OFFSET 0.000000 -17.728500 0.000000
         }
        }
       }
      }
     }
     JOINT LeftCollar
     {
      OFFSET 2.921100 9.558500 0.000000
      CHANNELS 3 Yrotation Xrotation Zrotation
      JOINT LeftShoulder
      {
       OFFSET 13.519700 0.000000 0.000000
       CHANNELS 3 Yrotation Xrotation Zrotation
       JOINT LeftElbow
       {
        OFFSET 0.000000 -29.696600 0.000000
        CHANNELS 3 Yrotation Xrotation Zrotation
        JOINT LeftWrist
        {
         OFFSET 0.000000 -24.004700 0.000000
         CHANNELS 3 Yrotation Xrotation Zrotation
         End Site
         {
          OFFSET 0.000000 -17.728500 0.000000
         }
        }
       }
      }
     }
    }
   }
  }
 }
 JOINT RightHip
 {
  OFFSET -7.771700 -0.012900 -0.001300
  CHANNELS 3 Yrotation Xrotation Zrotation
  JOINT RightKnee
  {
   OFFSET 0.000000 -40.869800 0.001200
   CHANNELS 3 Yrotation Xrotation Zrotation
   JOINT RightAnkle
   {
    OFFSET 0.000000 -39.717900 0.002100
    CHANNELS 3 Yrotation Xrotation Zrotation
    JOINT RightToe
    {
     OFFSET 0.000000 -4.965400 11.033500
     CHANNELS 3 Yrotation Xrotation Zrotation
     End Site
     {
      OFFSET 0.000000 -1.423100 5.872300
     }
    }
   }
  }
 }
 JOINT LeftHip
 {
  OFFSET 7.771700 -0.012900 -0.001300
  CHANNELS 3 Yrotation Xrotation Zrotation
  JOINT LeftKnee
  {
   OFFSET 0.000000 -40.869800 0.001200
   CHANNELS 3 Yrotation Xrotation Zrotation
   JOINT LeftAnkle
   {
    OFFSET 0.000000 -39.717900 0.002100
    CHANNELS 3 Yrotation Xrotation Zrotation
    JOINT LeftToe
    {
     OFFSET 0.000000 -4.965400 11.033500
     CHANNELS 3 Yrotation Xrotation Zrotation
     End Site
     {
      OFFSET 0.000000 -1.423100 5.872300
     }
    }
   }
  }
 }
}
MOTION
Frames: 11
Frame Time: 0.008333
-1.110728 50.142360 35.173666 173.016267 -33.747408 -6.568923 6.612846 21.735346 7.739404 0.774390 3.148958 0.772080 1.258884 5.150994 1.303101 5.196196 18.388466 5.398131 -2.066249 16.304570 1.524906 -4.372952 -5.426856 3.558633 1.897964 -1.939162 -5.723390 8.403164 -14.966514 -10.564962 161.184486 -73.057733 -166.888157 11.770625 6.751749 41.338463 -12.936335 0.042802 -0.418397 6.139907 -10.973859 0.056909 -174.246210 -76.528726 168.250832 3.534112 15.274031 -53.309706 2.019709 -47.821189 8.360582 -74.379878 82.079287 -62.712610 -0.104407 -7.221286 -3.688664 -0.269980 1.099735 -0.115005 -12.345826 -51.165575 18.297395 -128.520200 87.519932 -135.895135 0.210928 -8.620752 4.847093 -0.042735 -0.174385 0.018842
-1.111253 50.143145 35.173497 173.015637 -33.749618 -6.572326 6.612705 21.758542 7.752507 0.764080 3.225217 0.805060 1.260872 5.187483 1.315401 5.189110 18.363599 5.377911 -2.112293 16.302036 1.498330 -4.449161 -5.430591 3.525523 1.890063 -1.894830 -5.751445 8.457185 -14.869175 -10.758392 161.745723 -73.072115 -167.212242 12.295479 6.505119 43.288510 -12.963693 0.049858 -0.414322 6.122406 -11.214686 0.249966 -176.363864 -76.505426 169.975802 2.726959 15.993080 -55.296940 2.016241 -47.819068 8.363824 -74.377089 82.082149 -62.705515 -0.097006 -7.219834 -3.691728 -0.266200 1.096343 -0.117787 -12.322339 -51.165180 18.298241 -128.528350 87.521377 -135.907403 0.194383 -8.622639 4.863998 -0.043592 -0.173439 0.014936
-1.111394 50.143303 35.173145 173.011459 -33.751366 -6.570956 6.612233 21.808809 7.775598 0.765176 3.241013 0.809661 1.262503 5.211581 1.322660 5.184502 18.375272 5.378409 -2.160323 16.308306 1.475041 -4.529750 -5.417799 3.498837 1.879753 -1.845672 -5.777626 8.527503 -14.773395 -10.945847 162.338457 -73.094479 -167.573024 12.728428 6.155257 45.125527 -12.993056 0.062036 -0.409008 6.098447 -11.462574 0.451286 -178.389594 -76.451967 171.604815 1.890674 16.599947 -57.286065 2.002909 -47.818396 8.372675 -74.369737 82.089317 -62.699081 -0.101149 -7.214719 -3.701402 -0.263456 1.090142 -0.117495 -12.268893 -51.171329 18.273276 -128.534502 87.518039 -135.897507 0.182100 -8.626112 4.876907 -0.042595 -0.171797 0.009954
-1.110406 50.142615 35.173232 172.999437 -33.749481 -6.567546 6.619660 21.851767 7.800384 0.770270 3.220179 0.797602 1.261898 5.251688 1.338923 5.181630 18.402506 5.387733 -2.210029 16.320654 1.453239 -4.613790 -5.393627 3.475195 1.866779 -1.788021 -5.803763 8.620767 -14.682457 -11.129217 163.057125 -73.129332 -168.062364 13.065742 5.743044 46.836805 -13.026324 0.077708 -0.404496 6.071340 -11.713222 0.660895 179.755589 -76.354529 173.063144 1.066610 17.072801 -59.235292 1.998118 -47.823863 8.383717 -74.363606 82.094298 -62.689439 -0.113414 -7.209810 -3.712730 -0.256599 1.085093 -0.115661 -12.253496 -51.175339 18.276900 -128.623560 87.517882 -135.987073 0.175437 -8.629863 4.880867 -0.044061 -0.170852 0.009822
-1.109770 50.142221 35.171581 172.993053 -33.756027 -6.559665 6.622054 21.892576 7.810651 0.773601 3.210093 0.794075 1.262377 5.259510 1.339935 5.182284 18.455597 5.409454 -2.261001 16.334976 1.433219 -4.700723 -5.365505 3.455216 1.854782 -1.721582 -5.825970 8.731435 -14.596115 -11.310768 163.987111 -73.178258 -168.758238 13.307761 5.313733 48.410392 -13.064833 0.098296 -0.398551 6.043117 -11.963459 0.878059 178.161567 -76.213729 174.259638 0.308794 17.392249 -61.098334 1.997042 -47.821004 8.383962 -74.390933 82.103795 -62.709816 -0.136835 -7.208773 -3.731030 -0.240218 1.078593 -0.109092 -12.231090 -51.171265 18.264167 -128.705859 87.518146 -136.069213 0.170165 -8.633021 4.883986 -0.044488 -0.171429 0.009254
-1.105568 50.141277 35.170899 172.989198 -33.757131 -6.571660 6.629858 21.908430 7.831641 0.766621 3.278620 0.817060 1.269402 5.205543 1.319980 5.182061 18.504206 5.422614 -2.312395 16.348291 1.415804 -4.789327 -5.339071 3.440329 1.845526 -1.646176 -5.839103 8.856257 -14.515442 -11.490814 165.165870 -73.243334 -169.691227 13.468431 4.902593 49.838781 -13.105885 0.124921 -0.388348 6.011028 -12.209320 1.103955 176.851544 -76.036152 175.167686 -0.335731 17.562018 -62.833005 1.976598 -47.822168 8.406612 -74.441298 82.099190 -62.740508 -0.146818 -7.202919 -3.767683 -0.206468 1.070262 -0.093398 -12.230923 -51.173233 18.279725 -128.791254 87.511015 -136.145943 0.169744 -8.638291 4.884332 -0.044859 -0.170634 0.004341
-1.101800 50.139787 35.169980 172.986338 -33.756053 -6.578641 6.634134 21.922476 7.845098 0.765359 3.301256 0.819685 1.267941 5.274628 1.337956 5.178298 18.473361 5.402593 -2.363982 16.358875 1.400267 -4.879105 -5.317706 3.429016 1.834496 -1.563309 -5.842152 8.994385 -14.442282 -11.666445 166.590040 -73.320864 -170.851201 13.568252 4.531502 51.124070 -13.149061 0.157403 -0.375116 5.976669 -12.448907 1.337177 175.715101 -75.823730 175.884163 -0.842942 17.616735 -64.400641 1.966928 -47.824444 8.419778 -74.481000 82.094179 -62.766780 -0.147088 -7.205736 -3.786099 -0.196772 1.070939 -0.088203 -12.227352 -51.177798 18.288144 -128.853077 87.504305 -136.201538 0.172473 -8.643605 4.887729 -0.048540 -0.169774 -0.001867
-1.098820 50.138079 35.168319 172.974394 -33.756867 -6.573101 6.641996 21.950836 7.849939 0.768742 3.311439 0.820463 1.269017 5.287644 1.339616 5.176155 18.459221 5.396153 -2.417678 16.401210 1.389718 -4.970326 -5.302808 3.418130 1.816965 -1.445190 -5.831637 9.138236 -14.372331 -11.832829 168.225083 -73.403916 -172.204245 13.613722 4.210735 52.274379 -13.201044 0.231288 -0.363887 5.941218 -12.685651 1.575831 174.460468 -75.589329 176.687926 -1.221302 17.590875 -65.785932 1.957070 -47.827685 8.429396 -74.526563 82.096951 -62.808770 -0.144289 -7.202831 -3.802355 -0.194372 1.065333 -0.086376 -12.217609 -51.178814 18.291492 -129.043590 87.502565 -136.393207 0.167504 -8.650384 4.891131 -0.048162 -0.169094 -0.006847
-1.096507 50.135657 35.166923 172.968581 -33.751192 -6.565384 6.644725 21.974606 7.848933 0.769902 3.321253 0.820210 1.270414 5.299711 1.340934 5.175871 18.496189 5.399085 -2.442089 16.351788 1.375518 -5.091677 -5.256421 3.408181 1.805016 -1.384439 -5.828645 9.274990 -14.302522 -11.984733 170.026630 -73.489365 -173.713156 13.601918 3.941670 53.293095 -13.251330 0.257933 -0.351996 5.890767 -12.921870 1.821877 172.729156 -75.353224 177.935362 -1.490449 17.519479 -67.002486 1.951097 -47.837215 8.425557 -74.581953 82.102710 -62.856403 -0.144661 -7.202324 -3.816612 -0.190082 1.060737 -0.087710 -12.209361 -51.187157 18.287910 -129.199061 87.502830 -136.550467 0.164522 -8.655966 4.893884 -0.048202 -0.167930 -0.011305
-1.093743 50.133577 35.164626 172.962994 -33.749700 -6.558217 6.651054 22.005675 7.849537 0.767979 3.326275 0.818344 1.272348 5.311499 1.341999 5.178353 18.532350 5.400566 -2.509720 16.358088 1.357287 -5.173122 -5.262419 3.400045 1.793827 -1.328713 -5.819918 9.400275 -14.234466 -12.118220 171.971118 -73.579032 -175.355797 13.540848 3.713213 54.178755 -13.301984 0.292624 -0.339771 5.816702 -13.158049 2.072237 170.303181 -75.123027 179.840894 -1.656810 17.447325 -68.068838 1.940944 -47.840931 8.422267 -74.627239 82.112357 -62.894262 -0.141085 -7.203452 -3.832876 -0.190702 1.056652 -0.089481 -12.193821 -51.191386 18.280198 -129.360191 87.501212 -136.710547 0.160311 -8.664042 4.897696 -0.050461 -0.165440 -0.012958
-1.090306 50.131382 35.162318 172.955281 -33.747087 -6.552352 6.653366 22.032701 7.846725 0.772240 3.333166 0.818892 1.274566 5.299316 1.341362 5.179371 18.541638 5.399512 -2.581827 16.418495 1.341887 -5.253207 -5.259761 3.394339 1.778203 -1.228347 -5.803394 9.517201 -14.167873 -12.228651 174.041562 -73.671176 -177.111315 13.438819 3.511511 54.934685 -13.359745 0.383660 -0.335253 5.728486 -13.393062 2.320594 167.106918 -74.896607 -177.525838 -1.721980 17.406074 -69.010259 1.926783 -47.844214 8.425933 -74.650762 82.122016 -62.915526 -0.131912 -7.208685 -3.844287 -0.196103 1.057582 -0.094536 -12.183521 -51.196863 18.278239 -129.511096 87.498172 -136.860406 0.160308 -8.670081 4.900704 -0.051488 -0.165975 -0.016797
